<?xml version="1.0" encoding="UTF-8"?>
<svg width="800" height="600" viewBox="0 0 800 600" fill="none" xmlns="http://www.w3.org/2000/svg">
  <!-- Background -->
  <rect width="800" height="600" fill="#F3F4F6"/>
  
  <!-- Main Cloud Shape -->
  <path d="M300 250 
           C250 250, 200 300, 200 350 
           C200 400, 250 450, 300 450 
           L500 450 
           C550 450, 600 400, 600 350 
           C600 300, 550 250, 500 250 
           C500 200, 450 150, 400 150 
           C350 150, 300 200, 300 250 Z" 
        fill="#3B82F6" 
        opacity="0.8"/>
  
  <!-- Server Icons -->
  <rect x="320" y="300" width="40" height="60" fill="white" stroke="#1D4ED8" stroke-width="2"/>
  <rect x="380" y="300" width="40" height="60" fill="white" stroke="#1D4ED8" stroke-width="2"/>
  <rect x="440" y="300" width="40" height="60" fill="white" stroke="#1D4ED8" stroke-width="2"/>
  
  <!-- Connection Lines -->
  <path d="M340 280 L340 300" stroke="#1D4ED8" stroke-width="2"/>
  <path d="M400 280 L400 300" stroke="#1D4ED8" stroke-width="2"/>
  <path d="M460 280 L460 300" stroke="#1D4ED8" stroke-width="2"/>
  
  <!-- Small Clouds -->
  <circle cx="250" cy="200" r="30" fill="#93C5FD" opacity="0.5"/>
  <circle cx="550" cy="200" r="25" fill="#93C5FD" opacity="0.5"/>
  <circle cx="400" cy="500" r="20" fill="#93C5FD" opacity="0.5"/>
</svg> 