<svg width="800" height="400" viewBox="0 0 800 400" fill="none" xmlns="http://www.w3.org/2000/svg">
  <rect width="800" height="400" fill="#F3F4F6"/>
  
  <!-- Grid Lines -->
  <path d="M100 50h600M100 150h600M100 250h600M100 350h600" stroke="#E5E7EB" stroke-width="1"/>
  <path d="M100 50v300M300 50v300M500 50v300M700 50v300" stroke="#E5E7EB" stroke-width="1"/>
  
  <!-- Time Series Line -->
  <path d="M100 200
           Q150 180, 200 220
           T300 180
           Q350 160, 400 240
           T500 200
           Q550 180, 600 260
           T700 220" 
        stroke="#3B82F6" 
        stroke-width="4"
        fill="none"/>
  
  <!-- Dots -->
  <circle cx="100" cy="200" r="4" fill="#3B82F6"/>
  <circle cx="200" cy="220" r="4" fill="#3B82F6"/>
  <circle cx="300" cy="180" r="4" fill="#3B82F6"/>
  <circle cx="400" cy="240" r="4" fill="#3B82F6"/>
  <circle cx="500" cy="200" r="4" fill="#3B82F6"/>
  <circle cx="600" cy="260" r="4" fill="#3B82F6"/>
  <circle cx="700" cy="220" r="4" fill="#3B82F6"/>
</svg> 